<?xml version="1.0" encoding="UTF-8" standalone="no"?>
<!DOCTYPE svg PUBLIC "-//W3C//DTD SVG 1.1//EN" "http://www.w3.org/Graphics/SVG/1.1/DTD/svg11.dtd">
<svg width="100%" height="100%" viewBox="0 0 1193 301" version="1.1" xmlns="http://www.w3.org/2000/svg" xmlns:xlink="http://www.w3.org/1999/xlink" xml:space="preserve" xmlns:serif="http://www.serif.com/" style="fill-rule:evenodd;clip-rule:evenodd;stroke-linejoin:round;stroke-miterlimit:2;">
    <g id="Artboard2" transform="matrix(1,0,0,1,-148.725,-3.02353)">
        <g opacity="0.3">
            <rect x="148.725" y="3.024" width="1192.06" height="300.054" style="fill:none;"/>
            <clipPath id="_clip1">
                <rect x="148.725" y="3.024" width="1192.06" height="300.054"/>
            </clipPath>
            <g clip-path="url(#_clip1)">
                <g id="Artboard1" transform="matrix(0.991575,0,0,0.845487,10.6039,9.99494)">
                    <rect x="-9.963" y="-11.794" width="1351.47" height="357.553" style="fill:none;"/>
                    <g>
                        <g transform="matrix(0.97244,0,0,1.089,8.31763,-5.10303)">
                            <rect x="-16.705" y="-8.443" width="1384.78" height="335.183" style="fill:rgb(151,211,196);"/>
                        </g>
                        <g transform="matrix(1.0085,0,0,1.18275,-11.3614,-23.5384)">
                            <path d="M994.61,0L795.19,315.31L694.19,315.31C709.526,206.868 738.886,100.877 781.53,0L994.61,0Z" style="fill:rgb(2,53,52);fill-rule:nonzero;"/>
                        </g>
                        <g transform="matrix(1.0085,0,0,1.18275,-11.3614,-23.5384)">
                            <path d="M412.2,0C379.27,102.586 356.72,208.219 344.89,315.31L0,315.31L0,5.61C0.46,3.743 0.93,1.873 1.41,0L412.2,0Z" style="fill:rgb(2,53,52);fill-rule:nonzero;"/>
                        </g>
                        <g transform="matrix(1.0085,0,0,1.18275,-11.3614,-23.5384)">
                            <path d="M1755.94,0C1615.43,57.682 1505.79,172.354 1454.46,315.31L1095,315.31C1118.52,202.403 1164.11,95.245 1229.15,0L1755.94,0Z" style="fill:rgb(2,53,52);fill-rule:nonzero;"/>
                        </g>
                        <g transform="matrix(1.0085,0,0,1.18275,-11.3614,-23.5384)">
                            <rect x="0" y="0" width="2003.71" height="315.31" style="fill:none;"/>
                        </g>
                    </g>
                </g>
            </g>
        </g>
    </g>
</svg>
